<svg width="18" height="18" viewBox="0 0 18 18" fill="none" xmlns="http://www.w3.org/2000/svg">
<path fill-rule="evenodd" clip-rule="evenodd" d="M5.38358 0C5.75808 0 6.06166 0.311529 6.06166 0.69582V0.921694C6.10586 0.910145 6.15023 0.899009 6.19476 0.88829C8.03988 0.44416 9.96012 0.44416 11.8052 0.88829C11.8498 0.899009 11.8941 0.910144 11.9383 0.921693V0.69582C11.9383 0.311529 12.2419 0 12.6164 0C12.9909 0 13.2945 0.311529 13.2945 0.69582V1.429C14.8965 2.22313 16.1631 3.60338 16.8362 5.3048C16.9755 5.65668 17.0893 6.0222 17.1754 6.39896C17.6082 8.29235 17.6082 10.2628 17.1754 12.1562C16.5504 14.8905 14.4698 17.0255 11.8052 17.6669C9.96012 18.111 8.03988 18.111 6.19476 17.6669C3.53017 17.0255 1.44963 14.8906 0.824605 12.1562C0.391798 10.2628 0.391798 8.29235 0.824605 6.39895C0.910727 6.0222 1.02453 5.65668 1.16376 5.3048C1.83694 3.60339 3.10353 2.22314 4.70551 1.42901V0.69582C4.70551 0.311529 5.00909 0 5.38358 0ZM4.70552 3.01905C3.97894 3.49241 3.3623 4.12516 2.90101 4.87074H15.099C14.6377 4.12515 14.0211 3.49241 13.2945 3.01905C13.2925 3.40158 12.9897 3.71104 12.6164 3.71104C12.2419 3.71104 11.9383 3.39951 11.9383 3.01522V2.36868C11.7932 2.32117 11.6455 2.27925 11.4955 2.24315C9.85412 1.84806 8.14588 1.84806 6.50447 2.24315C6.35451 2.27925 6.20683 2.32117 6.06166 2.36868V3.01522C6.06166 3.39951 5.75808 3.71104 5.38358 3.71104C5.01034 3.71104 4.70753 3.40158 4.70552 3.01905ZM10.8977 9.85187C10.8977 10.3946 10.6699 10.7954 10.3037 11.0626C10.8082 11.3715 11.093 11.8809 11.093 12.4737C11.093 13.5508 10.3118 14.2188 9.0506 14.2188C7.78124 14.2188 7.00823 13.5508 7.00823 12.4737C7.00823 11.8809 7.29303 11.3715 7.78938 11.0626C7.43135 10.7954 7.19538 10.3946 7.19538 9.85187C7.19538 8.72464 8.04976 8.14015 9.0506 8.14015C10.0514 8.14015 10.8977 8.72464 10.8977 9.85187ZM9.78293 9.91032C9.78293 9.47612 9.47372 9.22563 9.0506 9.22563C8.62748 9.22563 8.31828 9.47612 8.31828 9.91032C8.31828 10.3362 8.62748 10.6034 9.0506 10.6034C9.47372 10.6034 9.78293 10.3362 9.78293 9.91032ZM8.12299 12.3234C8.12299 12.8495 8.51357 13.1334 9.0506 13.1334C9.58764 13.1334 9.97821 12.8495 9.97821 12.3234C9.97821 11.8057 9.58764 11.5218 9.0506 11.5218C8.51357 11.5218 8.12299 11.8057 8.12299 12.3234Z" fill="#393939"/>
</svg>
